<svg xmlns="http://www.w3.org/2000/svg" viewBox="0 0 48 48">
  <circle cx="24" cy="24" r="22" fill="#1a5276" stroke="#e8d5b7" stroke-width="2"/>
  <!-- Fortress on hill -->
  <path d="M8 36 Q16 26 24 28 Q32 26 40 36" fill="#5d6d4e" opacity="0.4"/>
  <!-- Tower -->
  <rect x="20" y="14" width="8" height="18" rx="1" fill="#a0785a"/>
  <!-- Battlements -->
  <rect x="19" y="12" width="3" height="3" fill="#a0785a"/>
  <rect x="26" y="12" width="3" height="3" fill="#a0785a"/>
  <!-- Wall -->
  <rect x="12" y="22" width="8" height="12" fill="#a0785a" opacity="0.8"/>
  <rect x="28" y="22" width="8" height="12" fill="#a0785a" opacity="0.8"/>
  <!-- Small battlements -->
  <rect x="12" y="20" width="2" height="3" fill="#a0785a"/>
  <rect x="16" y="20" width="2" height="3" fill="#a0785a"/>
  <rect x="30" y="20" width="2" height="3" fill="#a0785a"/>
  <rect x="34" y="20" width="2" height="3" fill="#a0785a"/>
  <!-- Flag -->
  <line x1="24" y1="12" x2="24" y2="8" stroke="#e8d5b7" stroke-width="1"/>
  <polygon points="24,8 30,10 24,12" fill="#e74c3c"/>
</svg>
