<svg xmlns="http://www.w3.org/2000/svg" viewBox="0 0 48 48">
  <circle cx="24" cy="24" r="22" fill="#1a5276" stroke="#e8d5b7" stroke-width="2"/>
  <!-- Wooden houses row -->
  <rect x="8" y="22" width="8" height="12" rx="0.5" fill="#c0392b" opacity="0.85"/>
  <polygon points="8,22 12,17 16,22" fill="#8b4513"/>
  <rect x="10" y="25" width="2" height="3" fill="#f4d03f" opacity="0.7"/>
  <rect x="18" y="20" width="8" height="14" rx="0.5" fill="#e8d5b7" opacity="0.9"/>
  <polygon points="18,20 22,14 26,20" fill="#8b4513"/>
  <rect x="20" y="23" width="2" height="3" fill="#aed6f1" opacity="0.7"/>
  <rect x="20" y="28" width="4" height="6" rx="1" fill="#8b4513"/>
  <rect x="28" y="21" width="8" height="13" rx="0.5" fill="#d4ac6e"/>
  <polygon points="28,21 32,16 36,21" fill="#8b4513"/>
  <rect x="30" y="24" width="2" height="3" fill="#aed6f1" opacity="0.7"/>
  <!-- Water -->
  <path d="M6 38 Q14 36 24 37 Q34 38 42 36" stroke="#aed6f1" stroke-width="1.5" fill="none" opacity="0.5"/>
</svg>
