<svg xmlns="http://www.w3.org/2000/svg" viewBox="0 0 48 48">
  <circle cx="24" cy="24" r="22" fill="#1a5276" stroke="#e8d5b7" stroke-width="2"/>
  <!-- Main dome -->
  <ellipse cx="24" cy="20" rx="10" ry="8" fill="#5b8abf"/>
  <ellipse cx="24" cy="20" rx="8" ry="6" fill="#1a5276" opacity="0.15"/>
  <!-- Cascading half-domes -->
  <path d="M13 26 Q13 20 19 22" fill="#5b8abf"/>
  <path d="M35 26 Q35 20 29 22" fill="#5b8abf"/>
  <!-- Base -->
  <rect x="10" y="24" width="28" height="12" rx="1" fill="#5b8abf"/>
  <!-- Crescent -->
  <circle cx="24" cy="12" r="1.5" fill="#f4d03f"/>
  <line x1="24" y1="14" x2="24" y2="16" stroke="#f4d03f" stroke-width="0.8"/>
  <!-- 6 minarets -->
  <rect x="5" y="16" width="1.8" height="18" rx="0.5" fill="#e8d5b7"/>
  <circle cx="5.9" cy="15" r="1" fill="#e8d5b7"/>
  <rect x="10" y="18" width="1.5" height="14" rx="0.5" fill="#e8d5b7"/>
  <circle cx="10.75" cy="17" r="0.8" fill="#e8d5b7"/>
  <rect x="36.5" y="18" width="1.5" height="14" rx="0.5" fill="#e8d5b7"/>
  <circle cx="37.25" cy="17" r="0.8" fill="#e8d5b7"/>
  <rect x="41.2" y="16" width="1.8" height="18" rx="0.5" fill="#e8d5b7"/>
  <circle cx="42.1" cy="15" r="1" fill="#e8d5b7"/>
  <rect x="15" y="20" width="1.2" height="10" rx="0.5" fill="#e8d5b7"/>
  <rect x="31.8" y="20" width="1.2" height="10" rx="0.5" fill="#e8d5b7"/>
</svg>