<svg xmlns="http://www.w3.org/2000/svg" viewBox="0 0 48 48">
  <circle cx="24" cy="24" r="22" fill="#1a5276" stroke="#e8d5b7" stroke-width="2"/>
  <!-- Water -->
  <path d="M6 28 Q12 25 18 27 Q24 29 30 27 Q36 25 42 28" stroke="#aed6f1" stroke-width="1" fill="none" opacity="0.4"/>
  <path d="M6 32 Q12 29 18 31 Q24 33 30 31 Q36 29 42 32" stroke="#aed6f1" stroke-width="1" fill="none" opacity="0.3"/>
  <!-- Island platform -->
  <ellipse cx="24" cy="24" rx="14" ry="6" fill="#8fbc8f" opacity="0.6"/>
  <rect x="12" y="20" width="24" height="6" rx="2" fill="#d4c4a0"/>
  <!-- Buildings on island -->
  <rect x="14" y="16" width="8" height="6" rx="1" fill="#e8d5b7"/>
  <rect x="26" y="17" width="7" height="5" rx="1" fill="#e8d5b7"/>
  <!-- Pool -->
  <ellipse cx="20" cy="24" rx="4" ry="1.5" fill="#5dade2" opacity="0.5"/>
  <!-- GS flag/star hint -->
  <circle cx="30" cy="14" r="2" fill="#f4d03f" opacity="0.7"/>
  <path d="M30 12.5 L30.5 13.5 L31.5 13.5 L30.8 14.2 L31 15.2 L30 14.6 L29 15.2 L29.2 14.2 L28.5 13.5 L29.5 13.5Z" fill="#e74c3c" opacity="0.8"/>
</svg>