<svg xmlns="http://www.w3.org/2000/svg" viewBox="0 0 48 48">
  <circle cx="24" cy="24" r="22" fill="#1a5276" stroke="#e8d5b7" stroke-width="2"/>
  <!-- Main structure -->
  <rect x="10" y="22" width="28" height="14" rx="1" fill="#d4a07a"/>
  <!-- Grand dome -->
  <ellipse cx="24" cy="20" rx="11" ry="9" fill="#d4a07a"/>
  <ellipse cx="24" cy="20" rx="9" ry="7" fill="#1a5276" opacity="0.1"/>
  <!-- Half domes -->
  <path d="M12 24 Q12 18 18 20" fill="#d4a07a"/>
  <path d="M36 24 Q36 18 30 20" fill="#d4a07a"/>
  <!-- Crescent on top -->
  <circle cx="24" cy="11" r="1.5" fill="#f4d03f"/>
  <line x1="24" y1="13" x2="24" y2="15" stroke="#f4d03f" stroke-width="0.8"/>
  <!-- 4 minarets -->
  <rect x="7" y="16" width="2" height="18" rx="0.5" fill="#e8d5b7"/>
  <circle cx="8" cy="15" r="1" fill="#e8d5b7"/>
  <rect x="39" y="16" width="2" height="18" rx="0.5" fill="#e8d5b7"/>
  <circle cx="40" cy="15" r="1" fill="#e8d5b7"/>
  <rect x="13" y="18" width="1.5" height="14" rx="0.5" fill="#e8d5b7"/>
  <rect x="33.5" y="18" width="1.5" height="14" rx="0.5" fill="#e8d5b7"/>
  <!-- Windows -->
  <rect x="20" y="24" width="2" height="3" rx="1" fill="#f4d03f" opacity="0.4"/>
  <rect x="26" y="24" width="2" height="3" rx="1" fill="#f4d03f" opacity="0.4"/>
</svg>