<svg xmlns="http://www.w3.org/2000/svg" viewBox="0 0 48 48">
  <circle cx="24" cy="24" r="22" fill="#1a5276" stroke="#e8d5b7" stroke-width="2"/>
  <!-- Pavilion building -->
  <rect x="12" y="18" width="24" height="16" rx="1" fill="#f5f0e0"/>
  <!-- Floors -->
  <line x1="12" y1="24" x2="36" y2="24" stroke="#d4c4a0" stroke-width="0.5"/>
  <line x1="12" y1="28" x2="36" y2="28" stroke="#d4c4a0" stroke-width="0.5"/>
  <!-- Ornate roof -->
  <path d="M10 18 L24 12 L38 18" fill="#e8d5b7" stroke="#d4c4a0" stroke-width="0.5"/>
  <!-- Windows -->
  <rect x="15" y="20" width="2.5" height="3" rx="1" fill="#1a5276" opacity="0.3"/>
  <rect x="20" y="20" width="2.5" height="3" rx="1" fill="#1a5276" opacity="0.3"/>
  <rect x="25.5" y="20" width="2.5" height="3" rx="1" fill="#1a5276" opacity="0.3"/>
  <rect x="31" y="20" width="2.5" height="3" rx="1" fill="#1a5276" opacity="0.3"/>
  <!-- Grand stairs -->
  <path d="M20 34 L20 31 L28 31 L28 34" fill="#f5f0e0" stroke="#d4c4a0" stroke-width="0.5"/>
  <!-- Water -->
  <path d="M6 38 Q12 35 18 37 Q24 39 30 37 Q36 35 42 38" stroke="#aed6f1" stroke-width="1.2" fill="none" opacity="0.6"/>
</svg>