<svg xmlns="http://www.w3.org/2000/svg" viewBox="0 0 48 48">
  <circle cx="24" cy="24" r="22" fill="#1a5276" stroke="#e8d5b7" stroke-width="2"/>
  <!-- Main dome -->
  <path d="M14 26 Q24 10 34 26" fill="#e8d5b7"/>
  <path d="M16 26 Q24 14 32 26" fill="#1a5276" opacity="0.1"/>
  <!-- Half domes -->
  <path d="M10 30 Q16 22 22 28" fill="#e8d5b7"/>
  <path d="M26 28 Q32 22 38 30" fill="#e8d5b7"/>
  <!-- Base -->
  <rect x="9" y="26" width="30" height="10" rx="1" fill="#e8d5b7"/>
  <!-- Crescent -->
  <circle cx="24" cy="11" r="1.5" fill="#f4d03f"/>
  <line x1="24" y1="13" x2="24" y2="15" stroke="#f4d03f" stroke-width="0.8"/>
  <!-- 4 minarets -->
  <rect x="6" y="16" width="2" height="18" rx="0.5" fill="#e8d5b7"/>
  <circle cx="7" cy="15" r="1.2" fill="#e8d5b7"/>
  <rect x="40" y="16" width="2" height="18" rx="0.5" fill="#e8d5b7"/>
  <circle cx="41" cy="15" r="1.2" fill="#e8d5b7"/>
  <rect x="11" y="20" width="1.5" height="12" rx="0.5" fill="#e8d5b7"/>
  <circle cx="11.75" cy="19" r="1" fill="#e8d5b7"/>
  <rect x="35.5" y="20" width="1.5" height="12" rx="0.5" fill="#e8d5b7"/>
  <circle cx="36.25" cy="19" r="1" fill="#e8d5b7"/>
  <!-- Windows -->
  <rect x="19" y="28" width="2.5" height="4" rx="1" fill="#1a5276" opacity="0.25"/>
  <rect x="26.5" y="28" width="2.5" height="4" rx="1" fill="#1a5276" opacity="0.25"/>
</svg>